<?xml version="1.0" encoding="iso-8859-1"?>
<!-- Generator: Adobe Illustrator 17.1.0, SVG Export Plug-In . SVG Version: 6.00 Build 0)  -->
<!DOCTYPE svg PUBLIC "-//W3C//DTD SVG 1.1//EN" "http://www.w3.org/Graphics/SVG/1.1/DTD/svg11.dtd">
<svg version="1.1" id="Capa_1" xmlns="http://www.w3.org/2000/svg" xmlns:xlink="http://www.w3.org/1999/xlink" x="0px" y="0px"
	 viewBox="0 0 433.235 433.235" style="enable-background:new 0 0 433.235 433.235;" xml:space="preserve">
<path d="M423.885,45.501L387.779,9.395c-5.969-5.969-14.58-9.392-23.626-9.392c-6.056,0-11.825,1.549-16.685,4.482l-39.473,23.821
	c-6.905,4.166-11.39,10.857-12.303,18.354c-0.913,7.497,1.834,15.066,7.536,20.767l22.453,22.453L189.193,226.369l-1.645-1.645
	c-21.76-21.76-47.844-34.75-69.775-34.75c-14.109,0-26.321,5.059-36.297,15.035l-28.076,28.076
	c-0.002,0.002-0.004,0.003-0.005,0.005L9.559,276.924c-8.385,8.384-11.876,23.715-7.949,34.903
	c0.869,2.475,21.492,60.839,40.228,79.574c18.735,18.735,77.099,39.359,79.575,40.229c3.028,1.063,6.393,1.602,10.002,1.602
	c9.468,0,19.01-3.66,24.901-9.552l4.914-4.914c0.005-0.006,0.016-0.016,0.021-0.021l66.98-66.981
	c10.961-10.961,15.996-24.766,14.892-40.459c0.073-0.072,0.15-0.139,0.222-0.211l29.982-29.982
	c7.815-7.815,12.12-18.237,12.12-29.345c0-11.107-4.305-21.529-12.12-29.345l-22.417-22.417l92.448-92.448l22.452,22.452
	c4.972,4.973,11.337,7.711,17.922,7.711c8.563,0,16.489-4.658,21.205-12.462l23.844-39.445
	C436.262,73.435,434.112,55.728,423.885,45.501z M255.65,240.1c3.094,3.094,4.798,7.237,4.798,11.667s-1.704,8.573-4.798,11.667
	l-20.118,20.118c-6.011-13.062-15.292-26.135-27.016-37.859l-1.646-1.646l26.363-26.363L255.65,240.1z M320.906,49.748
	c-0.007-0.007-0.014-0.014-0.022-0.021c0.01-0.005,0.019-0.011,0.028-0.017l39.473-23.821c0.934-0.563,2.307-0.886,3.768-0.886
	c2.356,0,4.691,0.813,5.948,2.069l9.194,9.194l-35.936,35.936L320.906,49.748z M407.386,72.881l-23.844,39.445
	c-0.007,0.013-0.015,0.024-0.021,0.036c-0.011-0.01-0.021-0.02-0.031-0.03L361.037,89.88l35.936-35.936l9.235,9.235
	C408.381,65.353,408.976,70.249,407.386,72.881z"/>
<g>
</g>
<g>
</g>
<g>
</g>
<g>
</g>
<g>
</g>
<g>
</g>
<g>
</g>
<g>
</g>
<g>
</g>
<g>
</g>
<g>
</g>
<g>
</g>
<g>
</g>
<g>
</g>
<g>
</g>
</svg>
